# xmcd
#
# Track frame offsets:
#	187
#	16930
#	34332
#	52690
#	68302
#	85762
#	101985
#	121692
#	137255
#	152837
#
# Disc length: 2232 seconds
#
# Revision: 1
# Processed by: cddbd v1.5.1PL0 Copyright (c) Steve Scherf et al.
# Submitted via: audiograbber 1.83.01
#
DISCID=6c08b60a
DTITLE=Bellamy Brothers - Greatest Hits Volume Two
DYEAR=1900
DGENRE=
TTITLE0=Feelin' The Feelin'
TTITLE1=When I'm Away From You
TTITLE2=Old Hippie
TTITLE3=Lie To You For Your Love
TTITLE4=Too Much Is Not Enough
TTITLE5=Forget About Me
TTITLE6=World's Greatest Lover
TTITLE7=I Need More Of You
TTITLE8=Strong Weakness
TTITLE9=I Love Her MInd
EXTD=
EXTT0=
EXTT1=
EXTT2=
EXTT3=
EXTT4=
EXTT5=
EXTT6=
EXTT7=
EXTT8=
EXTT9=
PLAYORDER=
